<svg width="200" height="164" viewBox="0 0 200 164" fill="none" xmlns="http://www.w3.org/2000/svg">
<g clip-path="url(#clip0_1:397)">
<path opacity="0.1" d="M195.608 162.567C197.298 160.877 195.342 156.181 191.238 152.078C187.135 147.975 182.439 146.018 180.749 147.709C179.059 149.399 181.015 154.095 185.118 158.198C189.221 162.301 193.917 164.257 195.608 162.567Z" fill="#1C385F"/>
<path d="M188.922 155.824C190.205 155.824 191.245 154.462 191.245 152.782C191.245 151.102 190.205 149.74 188.922 149.74C187.639 149.74 186.599 151.102 186.599 152.782C186.599 154.462 187.639 155.824 188.922 155.824Z" fill="#3F3D56"/>
<path d="M188.922 152.107C190.205 152.107 191.245 150.745 191.245 149.065C191.245 147.385 190.205 146.023 188.922 146.023C187.639 146.023 186.599 147.385 186.599 149.065C186.599 150.745 187.639 152.107 188.922 152.107Z" fill="#3F3D56"/>
<path d="M188.922 148.389C190.205 148.389 191.245 147.027 191.245 145.347C191.245 143.668 190.205 142.306 188.922 142.306C187.639 142.306 186.599 143.668 186.599 145.347C186.599 147.027 187.639 148.389 188.922 148.389Z" fill="#3F3D56"/>
<path d="M188.922 144.672C190.205 144.672 191.245 143.31 191.245 141.63C191.245 139.95 190.205 138.588 188.922 138.588C187.639 138.588 186.599 139.95 186.599 141.63C186.599 143.31 187.639 144.672 188.922 144.672Z" fill="#3F3D56"/>
<path d="M188.922 140.955C190.205 140.955 191.245 139.593 191.245 137.913C191.245 136.233 190.205 134.871 188.922 134.871C187.639 134.871 186.599 136.233 186.599 137.913C186.599 139.593 187.639 140.955 188.922 140.955Z" fill="#3F3D56"/>
<path d="M188.922 137.238C190.205 137.238 191.245 135.876 191.245 134.196C191.245 132.516 190.205 131.154 188.922 131.154C187.639 131.154 186.599 132.516 186.599 134.196C186.599 135.876 187.639 137.238 188.922 137.238Z" fill="#3F3D56"/>
<path d="M188.922 133.52C190.205 133.52 191.245 132.158 191.245 130.478C191.245 128.799 190.205 127.437 188.922 127.437C187.639 127.437 186.599 128.799 186.599 130.478C186.599 132.158 187.639 133.52 188.922 133.52Z" fill="#3F3D56"/>
<path d="M197.619 105.04C197.936 104.636 198.226 104.211 198.485 103.767L192.379 102.765L198.982 102.812C199.616 101.434 199.962 99.9417 199.999 98.4256C200.036 96.9095 199.764 95.4017 199.199 93.9944L190.342 98.5906L198.506 92.585C197.741 91.2612 196.712 90.1092 195.483 89.2007C194.253 88.2922 192.849 87.6468 191.359 87.3047C189.869 86.9626 188.325 86.9311 186.822 87.2122C185.319 87.4933 183.891 88.081 182.625 88.9386C181.359 89.7962 180.284 90.9053 179.466 92.1968C178.648 93.4883 178.105 94.9345 177.87 96.4452C177.636 97.9559 177.715 99.4987 178.103 100.977C178.491 102.456 179.18 103.839 180.126 105.04C179.631 105.668 179.205 106.349 178.857 107.069L186.781 111.182L178.337 108.346C177.744 110.1 177.598 111.974 177.911 113.798C178.225 115.623 178.988 117.341 180.132 118.796C178.841 120.438 178.038 122.409 177.814 124.486C177.591 126.562 177.956 128.659 178.869 130.538C179.781 132.416 181.204 134 182.974 135.108C184.744 136.216 186.79 136.804 188.879 136.804C190.967 136.804 193.013 136.216 194.783 135.108C196.553 134 197.976 132.416 198.888 130.538C199.801 128.659 200.166 126.562 199.943 124.486C199.719 122.409 198.916 120.438 197.625 118.796C199.168 116.835 200.006 114.412 200.006 111.916C200.006 109.42 199.168 106.997 197.625 105.036L197.619 105.04Z" fill="#1C385F"/>
<path opacity="0.1" d="M177.744 111.92C177.74 114.417 178.579 116.841 180.126 118.801C178.835 120.442 178.031 122.414 177.808 124.49C177.585 126.566 177.95 128.664 178.862 130.542C179.775 132.421 181.197 134.004 182.967 135.113C184.738 136.221 186.784 136.808 188.872 136.808C190.96 136.808 193.007 136.221 194.777 135.113C196.547 134.004 197.969 132.421 198.882 130.542C199.794 128.664 200.16 126.566 199.936 124.49C199.713 122.414 198.91 120.442 197.619 118.801C199.11 116.908 177.744 110.671 177.744 111.92Z" fill="black"/>
<path d="M183.367 0V155.878L130.541 148.517L66.3261 161.617L65.8086 161.723L14.7153 147.651V12.1238L67.7571 0L125.778 12.1238L127.984 11.6584L183.367 0Z" fill="#444053"/>
<path d="M174.49 8.51266V147.982L127.227 141.396L69.7705 153.118L69.3072 153.211L23.5917 140.621V19.3592L71.0522 8.51266L122.964 19.3592L124.938 18.9435L174.49 8.51266Z" fill="white"/>
<path opacity="0.1" d="M130.541 148.517L66.326 161.617L67.7571 0L125.778 12.1238L127.984 11.6584L130.541 148.517Z" fill="black"/>
<g opacity="0.3">
<path opacity="0.3" d="M124.129 29.8766L124.155 75.2327H142.99V56.614H175.248L179.037 51.7558" stroke="#444053" stroke-width="3" stroke-miterlimit="10"/>
<path opacity="0.3" d="M19.2618 44.2736H89.2987L93.6286 42.3252H95.3606V86.0576H125.67L126.969 89.9545V109.656H150.351V134.012" stroke="#444053" stroke-width="3" stroke-miterlimit="10"/>
<path opacity="0.3" d="M104.611 134.012V86.0576" stroke="#444053" stroke-width="3" stroke-miterlimit="10"/>
<path opacity="0.3" d="M179.037 121.165H104.611" stroke="#444053" stroke-width="3" stroke-miterlimit="10"/>
<path opacity="0.3" d="M160.396 29.8766V134.012" stroke="#444053" stroke-width="3" stroke-miterlimit="10"/>
<path opacity="0.3" d="M19.0453 111.959H179.037" stroke="#444053" stroke-width="3" stroke-miterlimit="10"/>
<path opacity="0.3" d="M38.5171 134.012V29.8766" stroke="#444053" stroke-width="3" stroke-miterlimit="10"/>
<path opacity="0.3" d="M75.7069 29.8766V134.012" stroke="#444053" stroke-width="3" stroke-miterlimit="10"/>
<path opacity="0.3" d="M19.2618 56.181L142.99 56.614" stroke="#444053" stroke-width="3" stroke-miterlimit="10"/>
<path opacity="0.3" d="M55.2717 30.0649V134.012" stroke="#444053" stroke-width="3" stroke-miterlimit="10"/>
<path opacity="0.3" d="M19.0453 80.2814H75.7069L104.611 111.959" stroke="#444053" stroke-width="3" stroke-miterlimit="10"/>
<path opacity="0.3" d="M110.873 29.8766V86.0576" stroke="#444053" stroke-width="3" stroke-miterlimit="10"/>
<path opacity="0.3" d="M104.611 96.1204H179.037" stroke="#444053" stroke-width="3" stroke-miterlimit="10"/>
</g>
<path d="M126.861 95.6917H104.995V86.1659L125.67 86.0576L126.969 89.738L126.861 95.6917Z" fill="#1C385F"/>
<path d="M116.036 46.3304C112.862 46.3304 109.818 47.5913 107.573 49.8357C105.329 52.0801 104.068 55.1242 104.068 58.2983C104.068 64.908 116.036 86.3823 116.036 86.3823C116.036 86.3823 128.004 64.9166 128.004 58.2983C128.004 55.1242 126.743 52.0801 124.499 49.8357C122.254 47.5913 119.21 46.3304 116.036 46.3304ZM116.036 63.4033C114.995 63.4033 113.977 63.0945 113.111 62.516C112.245 61.9374 111.57 61.1151 111.172 60.153C110.773 59.1909 110.669 58.1323 110.872 57.1109C111.075 56.0896 111.577 55.1514 112.313 54.4151C113.049 53.6787 113.987 53.1773 115.009 52.9741C116.03 52.7709 117.089 52.8752 118.051 53.2737C119.013 53.6722 119.835 54.3471 120.414 55.2129C120.992 56.0788 121.301 57.0968 121.301 58.1381C121.301 59.5342 120.746 60.8728 119.758 61.8598C118.771 62.8467 117.432 63.4012 116.036 63.4012V63.4033Z" fill="#1C385F"/>
<path opacity="0.1" d="M116.036 46.3304C112.862 46.3304 109.818 47.5913 107.573 49.8357C105.329 52.0801 104.068 55.1242 104.068 58.2983C104.068 64.908 116.036 86.3823 116.036 86.3823C116.036 86.3823 128.004 64.9166 128.004 58.2983C128.004 55.1242 126.743 52.0801 124.499 49.8357C122.254 47.5913 119.21 46.3304 116.036 46.3304ZM116.036 63.4033C114.995 63.4033 113.977 63.0945 113.111 62.516C112.245 61.9374 111.57 61.1151 111.172 60.153C110.773 59.1909 110.669 58.1323 110.872 57.1109C111.075 56.0896 111.577 55.1514 112.313 54.4151C113.049 53.6787 113.987 53.1773 115.009 52.9741C116.03 52.7709 117.089 52.8752 118.051 53.2737C119.013 53.6722 119.835 54.3471 120.414 55.2129C120.992 56.0788 121.301 57.0968 121.301 58.1381C121.301 59.5342 120.746 60.8728 119.758 61.8598C118.771 62.8467 117.432 63.4012 116.036 63.4012V63.4033Z" fill="black"/>
<path d="M116.036 48.0623C112.862 48.0623 109.818 49.3233 107.573 51.5677C105.329 53.8121 104.068 56.8562 104.068 60.0303C104.068 66.64 116.036 88.1143 116.036 88.1143C116.036 88.1143 128.004 66.6486 128.004 60.0303C128.004 56.8562 126.743 53.8121 124.499 51.5677C122.254 49.3233 119.21 48.0623 116.036 48.0623ZM116.036 65.1353C114.995 65.1353 113.977 64.8265 113.111 64.248C112.245 63.6694 111.57 62.8471 111.172 61.885C110.773 60.9229 110.669 59.8643 110.872 58.8429C111.075 57.8216 111.577 56.8834 112.313 56.147C113.049 55.4107 113.987 54.9092 115.009 54.7061C116.03 54.5029 117.089 54.6072 118.051 55.0057C119.013 55.4042 119.835 56.079 120.414 56.9449C120.992 57.8108 121.301 58.8287 121.301 59.8701C121.301 61.2662 120.746 62.6048 119.758 63.5918C118.771 64.5787 117.432 65.1332 116.036 65.1332V65.1353Z" fill="#1C385F"/>
<path opacity="0.1" d="M111.979 161.523C115.653 159.941 118.102 157.432 117.451 155.919C116.799 154.405 113.293 154.461 109.619 156.043C105.946 157.625 103.496 160.134 104.148 161.648C104.8 163.161 108.306 163.105 111.979 161.523Z" fill="#1C385F"/>
<path d="M110.714 159.699C111.599 159.699 112.316 158.761 112.316 157.603C112.316 156.446 111.599 155.508 110.714 155.508C109.83 155.508 109.112 156.446 109.112 157.603C109.112 158.761 109.83 159.699 110.714 159.699Z" fill="#3F3D56"/>
<path d="M110.714 157.136C111.599 157.136 112.316 156.197 112.316 155.04C112.316 153.883 111.599 152.944 110.714 152.944C109.83 152.944 109.112 153.883 109.112 155.04C109.112 156.197 109.83 157.136 110.714 157.136Z" fill="#3F3D56"/>
<path d="M110.714 154.575C111.599 154.575 112.316 153.636 112.316 152.479C112.316 151.321 111.599 150.383 110.714 150.383C109.83 150.383 109.112 151.321 109.112 152.479C109.112 153.636 109.83 154.575 110.714 154.575Z" fill="#3F3D56"/>
<path d="M110.714 152.013C111.599 152.013 112.316 151.075 112.316 149.918C112.316 148.76 111.599 147.822 110.714 147.822C109.83 147.822 109.112 148.76 109.112 149.918C109.112 151.075 109.83 152.013 110.714 152.013Z" fill="#3F3D56"/>
<path d="M110.714 149.45C111.599 149.45 112.316 148.512 112.316 147.354C112.316 146.197 111.599 145.259 110.714 145.259C109.83 145.259 109.112 146.197 109.112 147.354C109.112 148.512 109.83 149.45 110.714 149.45Z" fill="#3F3D56"/>
<path d="M110.714 146.889C111.599 146.889 112.316 145.951 112.316 144.793C112.316 143.636 111.599 142.698 110.714 142.698C109.83 142.698 109.112 143.636 109.112 144.793C109.112 145.951 109.83 146.889 110.714 146.889Z" fill="#3F3D56"/>
<path d="M110.714 144.328C111.599 144.328 112.316 143.39 112.316 142.232C112.316 141.075 111.599 140.136 110.714 140.136C109.83 140.136 109.112 141.075 109.112 142.232C109.112 143.39 109.83 144.328 110.714 144.328Z" fill="#3F3D56"/>
<path d="M104.72 124.698C104.501 124.423 104.302 124.134 104.122 123.832L108.331 123.139L103.784 123.174C103.348 122.224 103.11 121.195 103.085 120.15C103.06 119.106 103.248 118.067 103.637 117.097L109.742 120.253L104.113 116.114C104.641 115.202 105.35 114.408 106.197 113.782C107.045 113.157 108.012 112.712 109.039 112.476C110.066 112.241 111.13 112.219 112.165 112.413C113.201 112.607 114.185 113.012 115.057 113.603C115.929 114.194 116.67 114.958 117.234 115.848C117.798 116.738 118.172 117.734 118.334 118.775C118.496 119.816 118.441 120.879 118.174 121.898C117.907 122.917 117.432 123.87 116.781 124.698C117.118 125.132 117.409 125.601 117.647 126.097L112.189 128.935L118.013 126.986C118.422 128.195 118.523 129.487 118.307 130.744C118.091 132.002 117.565 133.186 116.776 134.189C117.666 135.321 118.22 136.68 118.374 138.111C118.529 139.542 118.277 140.988 117.648 142.283C117.019 143.578 116.038 144.67 114.818 145.434C113.598 146.198 112.188 146.603 110.748 146.603C109.308 146.603 107.898 146.198 106.678 145.434C105.458 144.67 104.477 143.578 103.848 142.283C103.219 140.988 102.967 139.542 103.122 138.111C103.276 136.68 103.83 135.321 104.72 134.189C103.657 132.837 103.079 131.167 103.079 129.447C103.079 127.727 103.657 126.057 104.72 124.704V124.698Z" fill="#1C385F"/>
<path opacity="0.1" d="M118.417 129.433C118.42 131.154 117.842 132.825 116.776 134.176C117.667 135.308 118.22 136.667 118.374 138.098C118.529 139.529 118.277 140.975 117.648 142.27C117.019 143.565 116.038 144.657 114.818 145.421C113.598 146.185 112.188 146.59 110.748 146.59C109.308 146.59 107.898 146.185 106.678 145.421C105.458 144.657 104.477 143.565 103.848 142.27C103.219 140.975 102.967 139.529 103.122 138.098C103.276 136.667 103.83 135.308 104.72 134.176C103.691 132.877 118.417 128.58 118.417 129.433Z" fill="black"/>
<path opacity="0.1" d="M17.8631 157.804C19.5532 156.114 17.5971 151.417 13.494 147.314C9.39094 143.211 4.69464 141.255 3.00453 142.945C1.31443 144.635 3.27054 149.332 7.37362 153.435C11.4767 157.538 16.173 159.494 17.8631 157.804Z" fill="#1C385F"/>
<path d="M11.1777 151.061C12.4607 151.061 13.5008 149.699 13.5008 148.019C13.5008 146.339 12.4607 144.977 11.1777 144.977C9.89478 144.977 8.85474 146.339 8.85474 148.019C8.85474 149.699 9.89478 151.061 11.1777 151.061Z" fill="#3F3D56"/>
<path d="M11.1777 147.344C12.4607 147.344 13.5008 145.982 13.5008 144.302C13.5008 142.622 12.4607 141.26 11.1777 141.26C9.89478 141.26 8.85474 142.622 8.85474 144.302C8.85474 145.982 9.89478 147.344 11.1777 147.344Z" fill="#3F3D56"/>
<path d="M11.1777 143.626C12.4607 143.626 13.5008 142.264 13.5008 140.585C13.5008 138.905 12.4607 137.543 11.1777 137.543C9.89478 137.543 8.85474 138.905 8.85474 140.585C8.85474 142.264 9.89478 143.626 11.1777 143.626Z" fill="#3F3D56"/>
<path d="M11.1777 139.909C12.4607 139.909 13.5008 138.547 13.5008 136.867C13.5008 135.187 12.4607 133.826 11.1777 133.826C9.89478 133.826 8.85474 135.187 8.85474 136.867C8.85474 138.547 9.89478 139.909 11.1777 139.909Z" fill="#3F3D56"/>
<path d="M11.1777 136.192C12.4607 136.192 13.5008 134.83 13.5008 133.15C13.5008 131.47 12.4607 130.108 11.1777 130.108C9.89478 130.108 8.85474 131.47 8.85474 133.15C8.85474 134.83 9.89478 136.192 11.1777 136.192Z" fill="#3F3D56"/>
<path d="M11.1777 132.475C12.4607 132.475 13.5008 131.113 13.5008 129.433C13.5008 127.753 12.4607 126.391 11.1777 126.391C9.89478 126.391 8.85474 127.753 8.85474 129.433C8.85474 131.113 9.89478 132.475 11.1777 132.475Z" fill="#3F3D56"/>
<path d="M11.1777 128.757C12.4607 128.757 13.5008 127.395 13.5008 125.716C13.5008 124.036 12.4607 122.674 11.1777 122.674C9.89478 122.674 8.85474 124.036 8.85474 125.716C8.85474 127.395 9.89478 128.757 11.1777 128.757Z" fill="#3F3D56"/>
<path d="M19.8744 100.277C20.1922 99.8734 20.4816 99.448 20.7404 99.0041L14.6352 98.0017L21.2383 98.0493C21.8717 96.6714 22.2176 95.1788 22.2549 93.6627C22.2921 92.1466 22.0199 90.6388 21.4548 89.2314L12.5979 93.8277L20.762 87.822C19.9973 86.4982 18.968 85.3462 17.7384 84.4377C16.5088 83.5293 15.1053 82.8839 13.6152 82.5417C12.1252 82.1996 10.5807 82.1681 9.07796 82.4492C7.57523 82.7303 6.14653 83.318 4.88093 84.1756C3.61533 85.0332 2.53997 86.1423 1.72191 87.4338C0.903851 88.7254 0.360626 90.1715 0.126113 91.6822C-0.108399 93.193 -0.0291723 94.7358 0.35885 96.2145C0.746873 97.6932 1.43537 99.0762 2.38142 100.277C1.88652 100.906 1.46115 101.586 1.11275 102.306L9.03654 106.419L0.593153 103.583C0.000292633 105.337 -0.146073 107.211 0.167291 109.035C0.480656 110.86 1.24387 112.578 2.38792 114.033C1.09683 115.675 0.293681 117.646 0.0702945 119.723C-0.153092 121.799 0.212299 123.896 1.12469 125.775C2.03709 127.653 3.45966 129.237 5.22976 130.345C6.99987 131.453 9.04606 132.041 11.1344 132.041C13.2227 132.041 15.2689 131.453 17.039 130.345C18.8091 129.237 20.2317 127.653 21.1441 125.775C22.0565 123.896 22.4219 121.799 22.1985 119.723C21.9751 117.646 21.172 115.675 19.8809 114.033C21.4235 112.072 22.2622 109.649 22.2622 107.153C22.2622 104.658 21.4235 102.234 19.8809 100.273L19.8744 100.277Z" fill="#1C385F"/>
<path opacity="0.1" d="M1.55684e-05 107.157C-0.00416823 109.654 0.835016 112.078 2.38148 114.038C1.0904 115.679 0.287248 117.651 0.063862 119.727C-0.159524 121.803 0.205867 123.901 1.11826 125.779C2.03066 127.658 3.45323 129.242 5.22333 130.35C6.99343 131.458 9.03963 132.045 11.128 132.045C13.2163 132.045 15.2625 131.458 17.0326 130.35C18.8027 129.242 20.2253 127.658 21.1377 125.779C22.0501 123.901 22.4155 121.803 22.1921 119.727C21.9687 117.651 21.1655 115.679 19.8744 114.038C21.3661 112.146 1.55684e-05 105.908 1.55684e-05 107.157Z" fill="black"/>
</g>
<defs>
<clipPath id="clip0_1:397">
<rect width="200" height="163.176" fill="white"/>
</clipPath>
</defs>
</svg>
