<svg width="108" height="80" viewBox="0 0 108 80" fill="none" xmlns="http://www.w3.org/2000/svg">
    <path opacity="0.1" d="M24.3646 31.9038C23.1729 31.9038 22.0293 32.0855 20.891 32.2512C21.2597 31.0113 21.6392 29.7502 22.2484 28.6172C22.8576 26.9713 23.8088 25.5444 24.7547 24.1069C25.5456 22.5518 26.9404 21.499 27.9665 20.1683C29.0406 18.8751 30.5049 18.0147 31.6645 16.9405C32.8028 15.8183 34.2938 15.2572 35.4802 14.4663C36.72 13.7555 37.7995 12.9699 38.9538 12.5959L41.8342 11.4095L44.3673 10.3567L41.7754 0L38.585 0.769537C37.5643 1.02605 36.3192 1.32531 34.903 1.68336C33.4548 1.95057 31.9104 2.6827 30.1896 3.3507C28.4902 4.10955 26.5236 4.62258 24.6959 5.84101C22.8576 7.00601 20.736 7.97862 18.8656 9.53908C17.054 11.1476 14.8683 12.5424 13.2544 14.5892C11.4909 16.5023 9.74871 18.5117 8.39667 20.7989C6.83087 22.9793 5.76741 25.3734 4.64517 27.7408C3.6298 30.1082 2.81217 32.5291 2.14417 34.8804C0.877634 39.5938 0.311168 44.0721 0.0920628 47.9038C-0.0896339 51.7408 0.0172465 54.9312 0.241695 57.2398C0.321856 58.33 0.471489 59.3881 0.578369 60.1202L0.711969 61.018L0.850914 60.986C1.80141 65.4259 3.98948 69.5061 7.16201 72.7545C10.3345 76.0028 14.3619 78.2867 18.7782 79.3417C23.1945 80.3968 27.8192 80.1801 32.1175 78.7165C36.4157 77.253 40.2118 74.6025 43.0666 71.0716C45.9214 67.5408 47.7182 63.2738 48.2493 58.7644C48.7803 54.255 48.0238 49.6874 46.0674 45.59C44.1109 41.4925 41.0344 38.0327 37.1937 35.6107C33.3531 33.1887 28.9052 31.9035 24.3646 31.9038ZM83.1488 31.9038C81.9571 31.9038 80.8135 32.0855 79.6752 32.2512C80.044 31.0113 80.4234 29.7502 81.0326 28.6172C81.6418 26.9713 82.5931 25.5444 83.5389 24.1069C84.3299 22.5518 85.7246 21.499 86.7507 20.1683C87.8249 18.8751 89.2891 18.0147 90.4488 16.9405C91.587 15.8183 93.078 15.2572 94.2644 14.4663C95.5042 13.7555 96.5837 12.9699 97.738 12.5959L100.618 11.4095L103.152 10.3567L100.56 0L97.3693 0.769537C96.3486 1.02605 95.1034 1.32531 93.6872 1.68336C92.239 1.95057 90.6946 2.6827 88.9738 3.3507C87.2798 4.1149 85.3078 4.62258 83.4802 5.84636C81.6418 7.01135 79.5202 7.98397 77.6498 9.54442C75.8382 11.153 73.6525 12.5478 72.0386 14.5892C70.2751 16.5023 68.5329 18.5117 67.1809 20.7989C65.6151 22.9793 64.5516 25.3734 63.4294 27.7408C62.414 30.1082 61.5964 32.5291 60.9284 34.8804C59.6619 39.5938 59.0954 44.0721 58.8763 47.9038C58.6946 51.7408 58.8015 54.9312 59.0259 57.2398C59.1061 58.33 59.2557 59.3881 59.3626 60.1202L59.4962 61.018L59.6351 60.986C60.5856 65.4259 62.7737 69.5061 65.9462 72.7545C69.1188 76.0028 73.1461 78.2867 77.5624 79.3417C81.9787 80.3968 86.6035 80.1801 90.9017 78.7165C95.1999 77.253 98.996 74.6025 101.851 71.0716C104.706 67.5408 106.502 63.2738 107.033 58.7644C107.565 54.255 106.808 49.6874 104.852 45.59C102.895 41.4925 99.8186 38.0327 95.978 35.6107C92.1373 33.1887 87.6894 31.9035 83.1488 31.9038Z" fill="#EA2A2A"/>
</svg>
